<svg width="47" height="33" viewBox="0 0 47 33" fill="none" xmlns="http://www.w3.org/2000/svg">
<g clip-path="url(#clip0_298_146)">
<path d="M32.852 16.1728L45.6392 0H36.1904L25.1904 14.48V0H17.2614H17.1512H12.6298L0.692139 33H9.10575L11.0817 27.1728H17.1512V33H25.1904V18.4288L36.2848 33H46.108L32.852 16.1728ZM13.1961 20.968L17.1512 9.15303V20.968H13.1961Z" fill="black"/>
<path d="M5.58495 9.94601L4.15646 9.80127C4.15646 11.0441 3.93936 12.4946 3.65933 13.7689C3.24085 15.7512 1.998 20.0587 0.229691 22.5098L1.48513 23.0415C3.2377 20.0902 4.35469 16.0753 4.8833 13.8193C5.08467 12.8187 5.30177 11.4972 5.39617 10.9183C5.46224 10.591 5.52203 10.2512 5.58495 9.94601ZM10.9371 11.6703L9.80435 12.202C10.8899 13.5235 12.1013 16.3774 12.5669 18.0387L13.7626 17.4409C13.2497 15.9431 11.8999 12.976 10.9371 11.6703ZM0 13.4921L0.138444 14.8796C0.525458 14.8167 1.17677 14.7349 1.53547 14.6877C2.48255 14.5902 5.38358 14.2378 6.42191 14.2378C7.41619 14.2378 8.06751 14.5115 8.06751 15.9778C8.06751 17.7177 7.83467 19.8322 7.33753 20.9114C7.0103 21.6225 6.54777 21.7484 5.97197 21.7484C5.53776 21.7484 4.73227 21.6193 4.0778 21.4085L4.27918 22.7615C4.77632 22.8748 5.50629 22.9881 6.11041 22.9881C7.10469 22.9881 7.87872 22.73 8.37586 21.6508C9.01144 20.3136 9.26001 17.7492 9.26001 15.8299C9.26001 13.6368 8.12729 13.0893 6.746 13.0893C5.69193 13.0893 2.54233 13.4606 1.39388 13.4921C0.899886 13.5078 0.49714 13.5078 0 13.4921Z" fill="#931518"/>
<path d="M20.6816 9.65649H19.316C19.3632 9.9145 19.3947 10.4777 19.3947 10.7861C19.3947 11.4468 19.3318 14.0741 19.3318 15.9305C19.3318 17.7209 19.4104 19.9611 19.4104 20.8956C19.4104 21.4274 19.2091 21.6854 18.8504 21.6854C18.2462 21.6854 17.1607 21.0404 17.1607 20.3135C17.1607 19.4923 18.3564 18.4099 19.8761 17.7995C21.1945 17.252 22.4656 16.9437 23.8627 16.9437C25.3226 16.9437 26.5151 17.6705 26.5151 19.0392C26.5151 20.5401 25.2754 21.2952 23.9256 21.5721C23.3372 21.7011 22.6859 21.6854 22.0943 21.6854L22.5286 22.9754C23.0729 22.944 23.7683 22.9094 24.451 22.7489C26.5906 22.2329 27.7706 20.99 27.7706 19.0392C27.7706 17.1041 26.1407 15.8298 23.8595 15.8298C22.6324 15.8298 21.0812 16.1193 19.703 16.6857C17.7806 17.444 15.9336 18.9417 15.9336 20.3607C15.9336 21.8112 17.9505 23.0384 19.1619 23.0384C20.0145 23.0384 20.5431 22.5538 20.5431 21.0718C20.5431 20.0555 20.4645 17.5415 20.4645 15.8644C20.4645 14.1874 20.5431 11.7206 20.5872 10.7703C20.6029 10.3802 20.6344 9.94597 20.6816 9.65649ZM25.5051 11.4468L24.9324 12.4128C25.9267 12.9603 27.6636 14.0741 28.4219 14.8167L29.0417 13.7846C28.2992 13.1396 26.6064 12.0415 25.5051 11.4468ZM16.1979 12.5418L16.2294 13.7846C16.7422 13.8318 17.3306 13.8664 18.199 13.8664C19.5961 13.8664 22.1384 13.5109 23.7368 13.1082L23.7053 11.8496C22.1699 12.3341 19.703 12.6708 18.1676 12.6708C17.6107 12.6708 17.0506 12.6551 16.1979 12.5418Z" fill="#931518"/>
<path d="M35.0799 9.80122L33.7301 9.75403C33.6986 10.204 33.6672 10.6571 33.6074 11.1416C33.4217 12.4631 33.126 14.8355 33.126 16.3647C33.126 17.4125 33.2046 18.3155 33.2802 18.9291L34.4915 18.8315C34.3814 18.0261 34.3814 17.4597 34.4601 16.8493C34.6457 14.738 36.4455 11.8024 38.3868 11.8024C40.0167 11.8024 40.8379 13.6399 40.8379 16.1885C40.8379 20.2349 38.2169 21.6539 34.8345 22.1857L35.5802 23.3467C39.4126 22.6199 42.128 20.6376 42.128 16.1728C42.128 12.7872 40.6397 10.6256 38.5914 10.6256C36.6217 10.6256 35.0076 12.6425 34.372 14.3007C34.4569 13.1711 34.7527 10.9937 35.0799 9.80122Z" fill="#931518"/>
</g>
<defs>
<clipPath id="clip0_298_146">
<rect width="46.1081" height="33" fill="white"/>
</clipPath>
</defs>
</svg>
